<svg xmlns="http://www.w3.org/2000/svg" xml:space="preserve" width="8.33333in" height="6.55555in" version="1.1"
     style="shape-rendering:geometricPrecision; text-rendering:geometricPrecision; image-rendering:optimizeQuality; fill-rule:evenodd; clip-rule:evenodd"
     viewBox="0 0 8333 6556">
  <path fill-opacity="0"
        d="M2080 2615l0 -12c-4,-10 -32,-26 -40,-30 -32,-17 -65,-32 -99,-46l-67 -27 22 -64c-11,-3 -22,-6 -32,-9 -158,-44 -340,-83 -500,-138l-21 64 -68 -17c-121,-30 -251,-60 -367,-105 -345,-131 -519,-527 -563,-869 -34,-264 231,-329 298,-65 37,147 102,296 216,398 -26,-109 -36,-222 -35,-327 2,-273 275,-305 305,-43 19,166 71,323 187,422 56,-177 -138,-563 -249,-685 -45,-49 -103,-130 -51,-195 68,-85 203,2 267,48 257,185 402,404 480,712 0,1 1,2 1,3 -2,-191 -104,-451 -177,-546 -40,-53 -85,-135 -30,-194 72,-79 197,6 259,56 238,194 350,421 386,726 6,56 25,107 57,153 89,126 265,194 465,216l-4 -55 65 -13c190,-39 633,-188 485,-464 -151,-281 -442,-951 -387,-1258 44,-245 285,-276 336,-37 51,244 167,491 315,699 -49,-237 -71,-472 -24,-620 30,-93 109,-214 223,-186 78,19 110,98 116,171 34,469 318,1035 763,1232l97 -30c347,-107 559,-581 671,-894 67,-186 195,-365 338,-500 58,-55 160,-130 241,-72 76,54 46,163 15,233 -109,252 -352,512 -240,803 89,-132 163,-269 220,-385 92,-185 244,-360 402,-491 62,-51 175,-129 252,-62 71,62 24,170 -14,236 -112,196 -330,418 -359,655 357,-417 656,-643 1233,-666 175,-7 248,84 224,160 113,-27 236,-42 372,-46 294,-8 286,261 20,263 -129,1 -265,46 -384,105 84,12 145,103 84,218 -80,150 -183,281 -308,393 230,-71 450,-244 587,-413 144,-177 350,-35 230,145 -73,109 -158,208 -254,297 -648,601 -1778,706 -2621,787 -479,46 -967,85 -1439,175 -275,53 -570,129 -831,256 83,9 165,31 249,68 142,62 267,160 408,217 54,22 110,37 169,40l128 7 -68 109c-220,354 -533,430 -896,336 11,1056 247,1767 958,2134l19 -51 67 18c149,39 359,12 510,-10 231,-35 460,-84 691,-118 361,-53 788,-85 1123,86 368,189 515,565 565,956l11 86 -5861 -4 -12 -61c-24,-119 -55,-225 -69,-339 -29,24 -58,49 -84,70l-142 113 19 -181c13,-119 25,-226 49,-333l-128 94 27 -180c24,-161 43,-290 102,-418l-106 35 16 -120c6,-42 14,-83 26,-123 27,-95 68,-185 115,-271 75,-137 165,-262 244,-396 52,-88 114,-206 108,-311 -1,-16 -3,-31 -7,-46 -104,-6 -206,-25 -309,-45 -56,-11 -167,-37 -222,-27 -41,7 -127,76 -159,105l-15 13 -19 4c-132,29 -276,54 -411,27l-75 -15 16 -75c34,-162 -105,-297 -174,-433 -14,-28 -19,-59 -8,-90 14,-40 53,-64 98,-81 -16,-56 14,-122 73,-178l50 -48 104 93 -12 16c14,14 31,30 44,39 69,-33 121,-79 152,-147 -36,-3 -82,-2 -101,-2 -73,1 -247,28 -270,-67 -12,-50 22,-84 61,-105 211,-113 483,-181 748,-231l18 -26c61,-87 137,-141 244,-151 73,-7 156,11 225,-3l71 -15 11 42c115,-44 234,-62 367,-67 51,-2 122,1 191,-2z"/>
    <path fill="#5fb180"
          d="M1970 2457c101,30 208,65 302,109 -4,2 -8,5 -12,7 -28,15 -64,24 -104,29 1,-32 -20,-65 -80,-97 -32,-17 -68,-33 -106,-49zm-1075 -642c67,191 187,359 379,439l19 8c-140,-34 -267,-67 -358,-102 -327,-124 -477,-514 -514,-808 -22,-174 106,-207 149,-37 49,194 144,390 325,500l0 0zm846 -46c-7,16 -16,30 -28,42 -50,52 -138,44 -202,30 -49,-11 -93,-27 -131,-49 87,-202 -121,-631 -257,-781 -108,-118 -35,-143 116,-35 189,136 362,319 451,669 11,45 29,85 51,123l0 0zm1835 -680c47,183 104,354 149,469 117,298 -448,513 -924,489 385,-79 686,-295 537,-574 -196,-366 -424,-962 -379,-1209 30,-168 155,-186 187,-35 61,289 214,605 430,860l0 0zm2109 33c-158,218 -357,408 -588,448 -130,22 -252,14 -365,-17 344,-107 571,-524 720,-941 63,-175 186,-345 319,-471 128,-122 204,-84 135,77 -115,265 -371,533 -239,864 6,14 12,28 18,40l0 0zm883 154c-127,90 -275,55 -321,-123 -3,-12 -5,-23 -7,-35 437,-523 724,-685 1234,-705 189,-7 196,107 33,111 -449,10 -941,494 -939,752l0 0zm755 187c-31,3 -62,3 -93,1 -28,-2 -90,-9 -105,-39 -8,-17 -6,-40 2,-66 168,-75 341,-207 477,-410 67,-101 170,-49 116,53 -98,185 -234,336 -397,460l0 0zm-5742 2572c104,13 207,11 298,-27 211,84 285,199 453,330 290,-196 292,-557 240,-868 156,339 96,793 -231,999 -62,748 -805,818 -976,1786 -34,-155 -31,-250 -13,-403 -64,9 -118,13 -178,40 42,-198 124,-350 219,-527 -82,32 -173,63 -251,102 70,-197 188,-288 343,-418 -120,-4 -233,-15 -352,11 114,-355 569,-624 448,-1025l0 0zm-264 -1234c-91,10 -191,33 -284,54 132,-188 274,-92 423,-124 -54,17 -99,41 -139,70l0 0zm482 150c125,-38 227,40 335,8 -18,33 -69,57 -123,71 -46,12 -44,106 -160,119 -172,19 -181,-118 -313,-38 -64,38 -106,-30 -20,-61 28,-10 56,-6 87,-16 65,-21 128,-63 195,-83l0 0zm47 19c32,0 58,19 58,32 0,14 -26,9 -58,9 -32,0 -59,4 -59,-9 0,-14 26,-32 59,-32l0 0zm-31 156c-14,0 -25,-8 -25,-14 0,-6 11,-4 25,-4 14,0 25,-2 25,4 0,6 -11,14 -25,14l0 0zm1185 -132c-57,7 -114,4 -171,-8 70,-13 138,-32 205,-59 -89,-13 -183,-17 -280,-17 605,-218 694,170 1074,205 -318,76 -644,163 -940,-42 42,-19 79,-47 113,-79l0 0zm-1623 -152c-406,65 -848,137 -1138,292 -139,74 391,-19 367,73 -38,145 -135,218 -236,260 -38,16 -155,-108 -143,-124 -118,113 -12,142 39,159 -120,32 -218,40 -187,100 83,164 222,286 181,483 121,24 257,0 380,-27 53,-47 139,-113 196,-123 119,-20 348,69 598,73 164,353 -396,732 -463,1231 61,-20 123,-43 185,-57 -146,185 -166,343 -198,561 54,-40 109,-82 164,-120 -74,187 -91,342 -112,536 60,-48 132,-114 199,-148 -2,169 45,302 76,462l5713 4c-229,-1759 -2134,-665 -2834,-851 301,143 663,246 1043,312 -1647,-128 -2148,-964 -2143,-2588 294,98 656,131 908,-275 -392,-20 -584,-464 -1156,-287 1294,-972 4418,-182 5416,-1670 68,-102 -27,-155 -108,-55 -290,356 -666,489 -901,474 -543,-36 258,-895 862,-900 164,-1 172,-116 -18,-111 -534,14 -847,184 -1395,756 -180,188 -435,145 -501,-112 -86,-333 206,-597 357,-861 91,-159 21,-198 -124,-78 -150,124 -296,292 -383,467 -219,441 -524,880 -914,946 -764,130 -1287,-693 -1335,-1361 -11,-152 -138,-135 -191,33 -79,246 67,845 212,1214 239,607 -1582,894 -1669,150 -41,-351 -189,-537 -358,-676 -135,-111 -212,-86 -120,33 164,215 394,993 -152,877 -305,-65 -411,-326 -441,-581 -20,-170 -153,-139 -154,35 -3,295 94,686 403,815 251,105 814,193 1090,361 -178,290 -570,0 -1015,298l0 0z"/>
</svg>
